<svg xmlns="http://www.w3.org/2000/svg" width="480" height="200" viewBox="0 0 480 200" role="img" aria-labelledby="title">
  <title id="title">Orma</title>
  <path d="M126 18C76 3 34 31 23 80c-12 53 16 92 63 97 48 5 82-24 91-71 7-35-2-64-23-79" fill="none" stroke="#ede9f2" stroke-width="12" stroke-linecap="round"/>
  <path d="M154 27c19 17 26 41 21 68-5 26-20 43-39 47-18 4-32-6-31-22 1-15 15-23 30-17" fill="none" stroke="#d9a6ea" stroke-width="10" stroke-linecap="round" stroke-linejoin="round"/>
  <g transform="translate(173 160.35)" fill="#ede9f2">
    <path d="M19.2-60.3c.3-1.4.53-2.78.68-4.12.14-1.35.22-2.23.22-2.63 0-3-1.28-4.92-3.83-5.77-2.55-.85-5.27-1.27-8.18-1.27H6.9l1.35-6.31H34.8l-3.14 21.61h1.5c1.89-4.1 3.94-7.9 6.14-11.4 2.19-3.5 4.84-6.32 7.95-8.47 3.1-2.15 6.9-3.23 11.4-3.23 4.2 0 7.3.98 9.3 2.94s3 4.42 3 7.42c0 3.5-.98 6.28-2.94 8.33-1.95 2.05-5.12 3.07-9.51 3.07 0-3.59-.4-6.46-1.2-8.61-.81-2.15-2.4-3.23-4.8-3.23-2.61 0-5.23 1.35-7.88 4.05-2.64 2.7-5.14 6.28-7.5 10.73-2.35 4.45-4.48 9.3-6.37 14.55-1.9 5.25-3.4 10.38-4.5 15.38L20.55 0H6.59z"/>
    <path transform="translate(70)" d="M113.55 1.5c-4.4 0-7.78-1.43-10.13-4.27-2.34-2.85-3.51-6.43-3.51-10.73 0-4.6.94-11.35 2.84-20.25l2.55-11.7c.3-1.4.7-3.14 1.2-5.24.5-2.1.95-4.3 1.34-6.61.41-2.3.61-4.3.61-6 0-2-.43-3.97-1.28-5.92-.84-1.96-2.72-2.94-5.62-2.94-2.9 0-5.78.98-8.63 2.94-2.84 1.95-5.51 4.48-8.01 7.58-2.5 3.09-4.68 6.42-6.53 9.97-1.86 3.55-3.28 6.87-4.29 9.97l-2.39 10.8c-.3 1.4-.7 3.55-1.2 6.47-.5 2.9-.98 6.03-1.42 9.38-.45 3.34-.85 6.42-1.21 9.22-.35 2.79-.53 4.74-.53 5.84H53.1c0-1.2.17-3.17.53-5.92.35-2.75.78-5.85 1.28-9.3.5-3.46 1.04-6.84 1.64-10.13.6-3.3 1.15-6.1 1.65-8.4l2.55-11.7c.3-1.4.7-3.14 1.2-5.24.5-2.1.95-4.3 1.34-6.61.41-2.3.61-4.3.61-6 0-2-.43-3.97-1.28-5.92-.86-1.96-2.73-2.94-5.63-2.94-3.1 0-6.21 1.15-9.31 3.45-3.09 2.3-5.97 5.25-8.62 8.86-2.65 3.59-4.9 7.32-6.75 11.17-1.84 3.84-3.06 7.42-3.66 10.42L20.55 0H6.59L19.2-60.3c.3-1.4.53-2.78.68-4.12.14-1.35.22-2.23.22-2.63 0-3-1.03-4.92-3.08-5.77-2.05-.85-4.52-1.27-7.43-1.27H8.4l1.35-6.31H37.5l-4.05 18.9h1.5c4.1-6.6 8.27-11.63 12.52-15.08 4.25-3.45 9.18-5.17 14.78-5.17 5.9 0 10.04 1.68 12.44 5.03 2.4 3.35 3.61 7.22 3.61 11.63 0 .59-.03 1.19-.08 1.79-.04.6-.12 1.2-.22 1.8h1.5c4.1-6.6 8.28-11.63 12.53-15.08 4.25-3.45 9.17-5.17 14.77-5.17 5.9 0 10.05 1.68 12.45 5.03 2.39 3.35 3.59 7.22 3.59 11.63 0 2.5-.32 5.23-.97 8.17-.65 2.95-1.22 5.73-1.72 8.33l-3.9 17.69c-.61 2.8-1.09 5.56-1.44 8.27-.34 2.7-.51 5.19-.51 7.48 0 4.81 1.75 7.2 5.25 7.2 2.91 0 6.11-1.15 9.61-3.45l2.69 4.36c-2.4 2-5.07 3.93-8.02 5.78-2.95 1.84-6.37 2.77-10.28 2.77z"/>
    <path transform="translate(204)" d="M25.8 1.5c-4.4 0-8.05-1.2-10.96-3.59-2.89-2.41-5.02-5.68-6.37-9.83-1.35-4.16-2.02-8.83-2.02-14.03 0-4.7.63-9.62 1.88-14.77 1.25-5.16 3.12-10.16 5.62-15 2.5-4.85 5.55-9.25 9.14-13.2 3.61-3.95 7.76-7.1 12.46-9.46 4.69-2.35 9.9-3.53 15.61-3.53 3.59 0 6.91.5 9.97 1.5 3.05 1 5.57 2.3 7.57 3.91l6.6-3.75h4.79L69.9-32.25c-.21 1.11-.51 2.71-.9 4.81-.4 2.1-.72 4.25-.97 6.44-.25 2.2-.37 4-.37 5.41 0 5.09 1.64 7.64 4.93 7.64 1.71 0 3.46-.38 5.25-1.13 1.8-.75 3.66-1.67 5.57-2.76l2.68 4.34c-1.39 1.3-3.29 2.66-5.7 4.06C78-2.04 75.45-.87 72.75.08 70.05 1.02 67.45 1.5 64.95 1.5c-3.6 0-6.46-1.1-8.56-3.3-2.09-2.19-3.14-5.25-3.14-9.15 0-2 .12-3.82.38-5.47.25-1.66.62-3.73 1.12-6.24h-.91c-3.4 7.71-7.44 13.67-12.14 17.86C37-.6 31.7 1.5 25.8 1.5zm5.4-9.45c2.6 0 5.27-1 8.02-3 2.75-2 5.35-4.7 7.8-8.1 2.45-3.4 4.63-7.2 6.53-11.4 1.9-4.2 3.3-8.45 4.2-12.75l5.55-26.55c-1.1-1.8-2.7-3.15-4.8-4.05-2.1-.9-4.3-1.36-6.59-1.36-4 0-7.61 1.13-10.82 3.38-3.2 2.25-6 5.23-8.4 8.94-2.4 3.7-4.42 7.75-6.07 12.15-1.64 4.4-2.87 8.82-3.67 13.27-.8 4.45-1.2 8.48-1.2 12.08 0 6.2.9 10.64 2.7 13.34 1.8 2.7 4.05 4.05 6.75 4.05z"/>
  </g>
</svg>
